<svg width="282" height="92" viewBox="0 0 282 92" fill="none" xmlns="http://www.w3.org/2000/svg">
<g clip-path="url(#clip0_529_553)">
<path d="M22.5139 27.3732L50.8817 17.0477C52.0597 16.6189 53.2949 17.5202 53.2949 18.8086V34.4309C53.2949 35.2226 52.8108 35.9283 52.0869 36.1918L22.5139 46.956V27.3732Z" fill="#292CAD"/>
<path d="M22.5139 57.7459L53.2949 41.9851V58.6596C53.2949 59.0597 53.1713 59.4563 52.9009 59.7512C52.4662 60.2251 52.1536 60.3781 51.6699 60.6258L25.1271 74.8637C23.9237 75.4799 22.5139 74.5732 22.5139 73.1831L22.5139 57.7459Z" fill="url(#paint0_linear_529_553)"/>
<path d="M30.4601 31.1932C30.4601 30.1901 31.2242 29.0988 32.1668 28.7558L47.9541 23.0096C48.8967 22.6666 49.6609 23.2016 49.6609 24.2047V26.021L30.4601 33.0095V31.1932Z" fill="#E5E50B"/>
<path d="M30.4601 38.0043C30.4601 37.0012 31.2242 35.9099 32.1668 35.5668L47.9541 29.8207C48.8967 29.4776 49.6609 30.0126 49.6609 31.0157V32.832L30.4601 39.8205V38.0043Z" fill="#E5E50B"/>
<path d="M22.5139 50.1358L50.8817 60.4225C52.0597 60.8497 53.2949 59.9518 53.2949 58.6683V39.933C53.2949 39.1442 52.8108 38.4412 52.0869 38.1787L22.5139 27.4549V50.1358Z" fill="#3D41FA"/>
<path d="M22.5139 29.8806L50.44 39.7757C50.9838 39.9684 51.3472 40.4827 51.3472 41.0597V57.6172C51.3472 57.9308 51.037 58.1499 50.7415 58.0452L22.5139 48.0433" stroke="#EEFF41" stroke-width="0.227034" stroke-dasharray="0.45 0.45"/>
<path d="M92.4906 50.3292C92.4906 52.0524 92.0929 53.5934 91.2976 54.9521C90.5354 56.3108 89.2927 57.3713 87.5695 58.1335C85.8794 58.8956 83.6425 59.2767 80.8588 59.2767C78.9036 59.2767 77.1473 59.1608 75.5897 58.9288C74.0653 58.73 72.5078 58.3323 70.9171 57.7358V50.1304C72.6735 50.9257 74.4464 51.5057 76.2359 51.8702C78.0254 52.2016 79.4338 52.3673 80.4612 52.3673C81.5216 52.3673 82.3004 52.2513 82.7975 52.0193C83.2945 51.7873 83.5431 51.4394 83.5431 50.9754C83.5431 50.5778 83.3774 50.2298 83.046 49.9316C82.7146 49.6333 82.1181 49.3019 81.2565 48.9374C80.428 48.5729 79.235 48.0758 77.6775 47.4461C76.1531 46.8165 74.8772 46.1371 73.8499 45.4081C72.8558 44.6459 72.1101 43.7511 71.613 42.7238C71.116 41.6634 70.8674 40.3875 70.8674 38.8963C70.8674 36.212 71.8947 34.1905 73.9493 32.8318C76.0371 31.4731 78.7876 30.7938 82.201 30.7938C84.0236 30.7938 85.7303 30.9926 87.3209 31.3903C88.9116 31.788 90.5685 32.3679 92.2918 33.1301L89.7069 39.2442C88.8122 38.8134 87.8843 38.4489 86.9233 38.1506C85.9954 37.8524 85.1172 37.6204 84.2887 37.4547C83.4934 37.289 82.814 37.2062 82.2507 37.2062C81.5216 37.2062 80.9417 37.3056 80.5109 37.5044C80.1132 37.7033 79.9144 37.985 79.9144 38.3495C79.9144 38.6809 80.0469 38.9791 80.312 39.2442C80.6103 39.5093 81.1571 39.8076 81.9524 40.139C82.7477 40.4704 83.9076 40.9509 85.432 41.5805C87.0227 42.2102 88.3317 42.9061 89.359 43.6683C90.4194 44.3973 91.1982 45.2921 91.6953 46.3525C92.2255 47.3799 92.4906 48.7054 92.4906 50.3292ZM109.173 30.7938C112.652 30.7938 115.37 31.6554 117.325 33.3786C119.28 35.1019 120.258 37.5541 120.258 40.7355V58.7797H113.696L111.857 55.1509H111.658C110.896 56.112 110.101 56.9073 109.272 57.537C108.477 58.1335 107.549 58.5643 106.489 58.8294C105.428 59.1276 104.136 59.2767 102.611 59.2767C101.021 59.2767 99.5957 58.9619 98.3364 58.3323C97.0771 57.6695 96.0829 56.6919 95.3539 55.3995C94.6248 54.0739 94.2603 52.4004 94.2603 50.3789C94.2603 47.4296 95.271 45.2424 97.2925 43.8174C99.3471 42.3924 102.313 41.5971 106.19 41.4314L110.764 41.2823V40.8846C110.764 39.6585 110.465 38.7969 109.869 38.2998C109.272 37.7695 108.46 37.5044 107.433 37.5044C106.339 37.5044 105.13 37.7033 103.804 38.1009C102.479 38.4655 101.137 38.946 99.7779 39.5425L97.044 33.2792C98.6347 32.4507 100.424 31.8377 102.412 31.44C104.434 31.0092 106.687 30.7938 109.173 30.7938ZM108.626 46.6011C106.903 46.6674 105.677 46.9822 104.948 47.5455C104.252 48.0758 103.904 48.838 103.904 49.8321C103.904 50.76 104.152 51.4559 104.649 51.9199C105.146 52.3507 105.809 52.5661 106.638 52.5661C107.798 52.5661 108.775 52.2016 109.571 51.4725C110.399 50.7435 110.813 49.799 110.813 48.6391V46.5017L108.626 46.6011ZM134.228 58.7797H124.734V21.0012H134.228V58.7797ZM151.738 30.7938C155.217 30.7938 157.935 31.6554 159.89 33.3786C161.845 35.1019 162.823 37.5541 162.823 40.7355V58.7797H156.261L154.422 55.1509H154.223C153.461 56.112 152.666 56.9073 151.837 57.537C151.042 58.1335 150.114 58.5643 149.053 58.8294C147.993 59.1276 146.701 59.2767 145.176 59.2767C143.585 59.2767 142.161 58.9619 140.901 58.3323C139.642 57.6695 138.648 56.6919 137.919 55.3995C137.19 54.0739 136.825 52.4004 136.825 50.3789C136.825 47.4296 137.836 45.2424 139.857 43.8174C141.912 42.3924 144.878 41.5971 148.755 41.4314L153.328 41.2823V40.8846C153.328 39.6585 153.03 38.7969 152.434 38.2998C151.837 37.7695 151.025 37.5044 149.998 37.5044C148.904 37.5044 147.695 37.7033 146.369 38.1009C145.044 38.4655 143.701 38.946 142.343 39.5425L139.609 33.2792C141.199 32.4507 142.989 31.8377 144.977 31.44C146.999 31.0092 149.252 30.7938 151.738 30.7938ZM151.191 46.6011C149.468 46.6674 148.242 46.9822 147.512 47.5455C146.817 48.0758 146.469 48.838 146.469 49.8321C146.469 50.76 146.717 51.4559 147.214 51.9199C147.711 52.3507 148.374 52.5661 149.203 52.5661C150.362 52.5661 151.34 52.2016 152.135 51.4725C152.964 50.7435 153.378 49.799 153.378 48.6391V46.5017L151.191 46.6011ZM183.404 30.7938C183.935 30.7938 184.481 30.8269 185.045 30.8932C185.608 30.9595 186.022 31.0258 186.287 31.092L185.442 40.0396C185.111 39.9733 184.697 39.907 184.2 39.8407C183.736 39.7745 183.073 39.7413 182.211 39.7413C181.615 39.7413 180.969 39.8076 180.273 39.9402C179.61 40.0396 178.964 40.2715 178.334 40.6361C177.738 41.0006 177.24 41.5474 176.843 42.2764C176.478 43.0055 176.296 43.9997 176.296 45.259V58.7797H166.802V31.2909H173.86L175.352 35.6652H175.799C176.296 34.7705 176.942 33.9586 177.738 33.2295C178.533 32.4673 179.411 31.8708 180.372 31.44C181.366 31.0092 182.377 30.7938 183.404 30.7938ZM187.766 31.2909H197.758L202.43 47.0485C202.496 47.2804 202.563 47.5621 202.629 47.8935C202.695 48.2249 202.745 48.5729 202.778 48.9374C202.844 49.3019 202.878 49.6664 202.878 50.031H203.076C203.143 49.3682 203.226 48.8048 203.325 48.3409C203.458 47.8438 203.574 47.4296 203.673 47.0982L208.445 31.2909H218.138L207.252 60.5195C206.423 62.7398 205.446 64.6121 204.319 66.1365C203.226 67.6609 201.867 68.8042 200.243 69.5664C198.619 70.3286 196.598 70.7097 194.179 70.7097C193.317 70.7097 192.571 70.66 191.942 70.5606C191.312 70.4943 190.765 70.4114 190.301 70.312V62.8558C190.666 62.922 191.097 62.9883 191.594 63.0546C192.124 63.1209 192.671 63.154 193.234 63.154C194.295 63.154 195.14 62.9386 195.769 62.5078C196.432 62.077 196.979 61.5136 197.41 60.8177C197.84 60.1549 198.205 59.4259 198.503 58.6305L198.603 58.382L187.766 31.2909Z" fill="white"/>
<path d="M239.465 62.7563C239.465 64.4796 239.068 66.0205 238.272 67.3792C237.51 68.7379 236.267 69.7984 234.544 70.5606C232.854 71.3228 230.617 71.7039 227.833 71.7039C225.878 71.7039 224.122 71.5879 222.564 71.3559C221.04 71.1571 219.482 70.7594 217.892 70.1629V62.5575C219.648 63.3528 221.421 63.9328 223.211 64.2973C225 64.6287 226.408 64.7944 227.436 64.7944C228.496 64.7944 229.275 64.6784 229.772 64.4464C230.269 64.2145 230.518 63.8665 230.518 63.4026C230.518 63.0049 230.352 62.6569 230.021 62.3587C229.689 62.0604 229.093 61.729 228.231 61.3645C227.403 61 226.21 60.5029 224.652 59.8733C223.128 59.2436 221.852 58.5643 220.825 57.8352C219.83 57.073 219.085 56.1783 218.588 55.1509C218.091 54.0905 217.842 52.8147 217.842 51.3234C217.842 48.6391 218.869 46.6177 220.924 45.259C223.012 43.9003 225.762 43.2209 229.176 43.2209C230.998 43.2209 232.705 43.4197 234.296 43.8174C235.886 44.2151 237.543 44.795 239.266 45.5572L236.682 51.6714C235.787 51.2405 234.859 50.876 233.898 50.5778C232.97 50.2795 232.092 50.0475 231.263 49.8819C230.468 49.7162 229.789 49.6333 229.225 49.6333C228.496 49.6333 227.916 49.7327 227.485 49.9316C227.088 50.1304 226.889 50.4121 226.889 50.7766C226.889 51.108 227.021 51.4062 227.287 51.6714C227.585 51.9365 228.132 52.2347 228.927 52.5661C229.722 52.8975 230.882 53.378 232.407 54.0077C233.997 54.6373 235.306 55.3332 236.334 56.0954C237.394 56.8245 238.173 57.7192 238.67 58.7797C239.2 59.807 239.465 61.1325 239.465 62.7563ZM254.109 43.2209C256.794 43.2209 259.097 43.6849 261.019 44.6128C262.974 45.5406 264.465 46.9325 265.493 48.7883C266.553 50.644 267.083 52.9803 267.083 55.7972V60.0224H250.133C250.199 61.4474 250.729 62.6238 251.723 63.5517C252.751 64.4796 254.225 64.9435 256.147 64.9435C257.871 64.9435 259.445 64.7778 260.87 64.4464C262.295 64.115 263.769 63.5848 265.294 62.8558V69.6658C263.968 70.3617 262.51 70.8754 260.919 71.2068C259.362 71.5382 257.39 71.7039 255.004 71.7039C252.22 71.7039 249.735 71.2234 247.548 70.2623C245.394 69.2682 243.687 67.7272 242.428 65.6394C241.169 63.5517 240.539 60.884 240.539 57.6364C240.539 54.3225 241.102 51.6051 242.229 49.4842C243.389 47.3633 244.98 45.7892 247.001 44.7619C249.056 43.7346 251.425 43.2209 254.109 43.2209ZM254.457 49.683C253.331 49.683 252.386 50.031 251.624 50.7269C250.895 51.4228 250.464 52.533 250.332 54.0574H258.484C258.484 53.2289 258.318 52.4998 257.987 51.8702C257.688 51.2074 257.241 50.6772 256.645 50.2795C256.048 49.8819 255.319 49.683 254.457 49.683Z" fill="#DBDB00"/>
</g>
<defs>
<linearGradient id="paint0_linear_529_553" x1="20.4407" y1="66.6301" x2="57.8931" y2="58.518" gradientUnits="userSpaceOnUse">
<stop stop-color="#3D41FA"/>
<stop offset="0.51" stop-color="#292CAD"/>
</linearGradient>
<clipPath id="clip0_529_553">
<rect width="282" height="92" fill="white"/>
</clipPath>
</defs>
</svg>
