<svg width="800" height="600" viewBox="0 0 800 600" xmlns="http://www.w3.org/2000/svg">
  <g stroke="#10B981" stroke-width="1" fill="none">
    <path d="M100,100 L200,100 L200,200 L300,200 L300,300 L400,300 L400,400 L500,400 L500,500 L600,500 L600,600" />
    <path d="M200,100 L200,50 L300,50 L300,150 L400,150 L400,250 L500,250 L500,350 L600,350 L600,450 L700,450 L700,550" />
    <path d="M300,200 L350,200 L350,300 L450,300 L450,400 L550,400 L550,500" />
    <path d="M400,300 L400,250 L500,250 L500,350 L600,350 L600,450" />
    <path d="M100,200 L150,200 L150,300 L250,300 L250,400 L350,400 L350,500 L450,500 L450,600" />
    <path d="M100,300 L200,300 L200,400 L300,400 L300,500 L400,500 L400,600" />
    <path d="M100,400 L150,400 L150,500 L250,500 L250,600" />
    <path d="M200,500 L300,500 L300,600" />
    
    <circle cx="100" cy="100" r="5" fill="#10B981" />
    <circle cx="200" cy="100" r="5" fill="#10B981" />
    <circle cx="200" cy="200" r="5" fill="#10B981" />
    <circle cx="300" cy="200" r="5" fill="#10B981" />
    <circle cx="300" cy="300" r="5" fill="#10B981" />
    <circle cx="400" cy="300" r="5" fill="#10B981" />
    <circle cx="400" cy="400" r="5" fill="#10B981" />
    <circle cx="500" cy="400" r="5" fill="#10B981" />
    <circle cx="500" cy="500" r="5" fill="#10B981" />
    <circle cx="600" cy="500" r="5" fill="#10B981" />
    <circle cx="600" cy="600" r="5" fill="#10B981" />
    
    <circle cx="200" cy="50" r="5" fill="#10B981" />
    <circle cx="300" cy="50" r="5" fill="#10B981" />
    <circle cx="300" cy="150" r="5" fill="#10B981" />
    <circle cx="400" cy="150" r="5" fill="#10B981" />
    <circle cx="400" cy="250" r="5" fill="#10B981" />
    <circle cx="500" cy="250" r="5" fill="#10B981" />
    <circle cx="500" cy="350" r="5" fill="#10B981" />
    <circle cx="600" cy="350" r="5" fill="#10B981" />
    <circle cx="600" cy="450" r="5" fill="#10B981" />
    <circle cx="700" cy="450" r="5" fill="#10B981" />
    <circle cx="700" cy="550" r="5" fill="#10B981" />
  </g>
</svg>
